<svg width="123" height="71" fill="none" xmlns="http://www.w3.org/2000/svg"><path d="M24.538 28.867c4.983 0 6.927-4.254 6.927-8.994l-6.927 8.994zm13.744 6.472c0-3.275 1.75-7.656 7.401-7.656l-7.4 7.656z" fill="#EA5A47"/><path d="M45.684 44.18s.239 15.312-11.606 15.312H10.137c-10.512 0-11.181-15.312 0-15.312-10.512 0-11.181-15.313 0-15.313-11.91-10.573 2.734-19.78 9.479-12.67-6.999-9.661 7.838-15.038 12.943-7.292C31.958 1.16 39.627-.238 46.74 5.57l-.632.512c3.464-3.464 14.842-1.58 14.842 7.75l-3.236 2.366C67.726 6.187 78.435 22.305 70.11 28.2h1.944c6.927 0 7.717 15.98-1.944 15.98H29.52" fill="#FC6C2E"/><path d="M46.11 6.08c-3.525 3.525-.413 4.635-6.23 10.452l6.23-10.451z" fill="#EA5A47"/><path d="M10.137 28.867h14.4m.001 0c4.983 0 6.927-4.254 6.927-8.994M10.137 44.18h5.468m22.678 0v-8.84m0 0c0-3.276 1.75-7.657 7.4-7.657m26.372.517H59.538" stroke="#000" stroke-width="2.917" stroke-miterlimit="10" stroke-linecap="round" stroke-linejoin="round"/><path d="M45.684 44.18s.239 15.312-11.606 15.312H10.137c-10.512 0-11.181-15.312 0-15.312-10.512 0-11.181-15.313 0-15.313-11.91-10.573 2.734-19.78 9.479-12.67-6.999-9.661 7.838-15.038 12.943-7.292C31.958 1.16 39.627-.238 46.74 5.57l-.632.512c3.464-3.464 14.842-1.58 14.842 7.75l-3.236 2.366C67.726 6.187 78.435 22.305 70.11 28.2h1.944c6.927 0 7.717 15.98-1.944 15.98H29.52m16.59-38.1c-3.525 3.525-.413 4.635-6.23 10.452" stroke="#000" stroke-width="2.917" stroke-miterlimit="10" stroke-linecap="round" stroke-linejoin="round"/><path d="M56.163 51.115c.94-1.42 2.07-2.13 3.39-2.13 2.04 0 3.56.87 4.56 2.61.22-.3.48-.61.78-.93.32-.34.82-.7 1.5-1.08.68-.4 1.38-.6 2.1-.6 1.6 0 2.94.62 4.02 1.86 1.08 1.22 1.62 3.25 1.62 6.09v5.25c0 .46-.02.81-.06 1.05-.02.22-.11.48-.27.78-.26.54-1.03.81-2.31.81-1.26 0-2.03-.28-2.31-.84-.14-.3-.23-.56-.27-.78-.02-.24-.03-.59-.03-1.05v-5.25c0-1.74-.62-2.61-1.86-2.61-.7 0-1.18.23-1.44.69-.24.46-.36 1.11-.36 1.95v5.25c0 .48-.02.83-.06 1.05-.02.22-.11.48-.27.78-.28.54-1.06.81-2.34.81-1.26 0-2.03-.28-2.31-.84-.14-.3-.23-.56-.27-.78-.02-.24-.03-.59-.03-1.05v-5.25c0-1.74-.62-2.61-1.86-2.61-1.2 0-1.8.87-1.8 2.61v5.31c0 .46-.02.81-.06 1.05-.02.22-.11.48-.27.78-.3.52-1.08.78-2.34.78-1.26 0-2.03-.27-2.31-.81-.14-.3-.23-.56-.27-.78-.02-.22-.03-.57-.03-1.05v-10.56c0-.46.01-.8.03-1.02.04-.24.14-.5.3-.78.3-.54 1.01-.81 2.13-.81 1.12 0 1.85.18 2.19.54.34.36.51.88.51 1.56zm22.528 1.418c0-.429.01-.746.028-.952.037-.224.121-.476.252-.756.261-.485.99-.728 2.184-.728.896 0 1.53.159 1.904.476.317.262.485.663.504 1.204.019.187.028.458.028.812v9.8c0 .43-.019.756-.056.98-.019.206-.103.448-.252.728-.243.486-.962.728-2.156.728-1.176 0-1.895-.252-2.156-.756a3.08 3.08 0 01-.252-.728 12.08 12.08 0 01-.028-.98v-9.828zm4.592-5.18c-.13.262-.374.448-.728.56-.355.112-.83.168-1.428.168-.579 0-1.045-.056-1.4-.168-.355-.112-.607-.308-.756-.588a3.082 3.082 0 01-.252-.728c-.019-.224-.028-.55-.028-.98 0-.429.01-.746.028-.952.037-.224.121-.466.252-.728.261-.504.99-.756 2.184-.756 1.176 0 1.885.252 2.128.756.15.28.233.532.252.756.037.206.056.523.056.952 0 .43-.019.756-.056.98-.019.206-.103.448-.252.728zm13.325 10.08l3.724 3.08c.466.392.756.691.868.896.13.206.196.402.196.588 0 .448-.29 1.055-.868 1.82-.635.784-1.195 1.176-1.68 1.176-.411 0-.98-.27-1.709-.812l-.28-.196c-.429-.354-1.091-.97-1.987-1.848-.897-.896-1.578-1.53-2.044-1.904v2.156a6.4 6.4 0 01-.056.98c-.02.206-.103.448-.253.728-.242.486-.96.728-2.156.728-1.175 0-1.894-.252-2.156-.756a3.09 3.09 0 01-.251-.728c-.02-.224-.029-.55-.029-.98V45.59c0-.429.01-.746.028-.952.038-.224.122-.476.252-.756.262-.504.99-.756 2.184-.756.896 0 1.531.159 1.904.476.318.262.486.672.504 1.232.02.168.028.43.028.784v8.876c.337-.28.84-.756 1.513-1.428.69-.672 1.203-1.148 1.54-1.428l.336-.224c.653-.504 1.213-.756 1.68-.756.466 0 .998.383 1.596 1.148.616.747.924 1.335.924 1.764 0 .43-.346.934-1.037 1.512l-2.772 2.352zm5.064.028c0-2.24.784-4.088 2.352-5.544 1.568-1.456 3.36-2.184 5.376-2.184 2.016 0 3.798.728 5.348 2.184 1.549 1.438 2.324 3.276 2.324 5.516 0 1.55-.402 2.931-1.204 4.144-.803 1.195-1.783 2.082-2.94 2.66a7.963 7.963 0 01-3.556.84c-1.232 0-2.427-.298-3.584-.896-1.158-.616-2.138-1.512-2.94-2.688-.784-1.194-1.176-2.538-1.176-4.032zm5.852 2.016c.597.448 1.204.672 1.82.672.616 0 1.232-.233 1.848-.7.616-.466.924-1.157.924-2.072 0-.914-.29-1.596-.868-2.044-.579-.448-1.204-.672-1.876-.672-.672 0-1.298.234-1.876.7-.579.467-.868 1.158-.868 2.072 0 .896.298 1.578.896 2.044z" fill="#000"/></svg>