<svg xmlns="http://www.w3.org/2000/svg" viewBox="0 0 20 20"><path d="M10 0a10 10 0 1010 10A10 10 0 0010 0zm1.18 16.88h-1.9V15h1.9zm3-8.48a7.64 7.64 0 01-1.63 1.83 8.59 8.59 0 00-1.07 1.07 2.55 2.55 0 00-.37.78 7.18 7.18 0 00-.11 1.45H9.38v-.5a4.62 4.62 0 01.28-1.7 3.61 3.61 0 01.66-1.08 11.37 11.37 0 011.2-1.17 5.31 5.31 0 001.12-1.22 1.88 1.88 0 00.26-1 2.3 2.3 0 00-.76-1.71 2.56 2.56 0 00-1.86-.74 2.52 2.52 0 00-1.78.67 3.52 3.52 0 00-.94 2.09L5.83 7a4.48 4.48 0 011.38-2.94 4.45 4.45 0 013-1 4.54 4.54 0 013.18 1.08 3.42 3.42 0 011.19 2.63 3.31 3.31 0 01-.39 1.63z" id="Layer_2" data-name="Layer 2" fill="#19105f"/></svg>