<svg width="47" height="36" fill="none" xmlns="http://www.w3.org/2000/svg"><path d="M45.616 2.699c-2.849-1.256-5.7-1.733-8.549-1.733-9.045-.001-18.09 4.81-27.135 4.81-2.268 0-4.535-.303-6.804-1.059a2.4 2.4 0 00-.76-.125C1.104 4.592 0 5.62 0 7.046v24.48c0 .974.53 1.897 1.384 2.272 2.848 1.256 5.699 1.734 8.548 1.734 9.045 0 18.09-4.81 27.136-4.81 2.268 0 4.535.302 6.804 1.058a2.4 2.4 0 00.76.125c1.264 0 2.368-1.028 2.368-2.454V4.972c0-.975-.532-1.898-1.384-2.273zm-42.091 6c1.477.388 3.02.583 4.606.688-.432 2.268-2.33 3.977-4.606 3.977V8.698zm0 21.99V27c2.524 0 4.566 2.105 4.679 4.738a17.007 17.007 0 01-4.68-1.05zM23.5 25.655c-3.245 0-5.875-3.317-5.875-7.407 0-4.091 2.63-7.407 5.875-7.407 3.244 0 5.875 3.316 5.875 7.407s-2.632 7.407-5.875 7.407zm19.974 2.143c-1.286-.338-2.622-.528-3.989-.65.431-2.013 2.02-3.54 3.99-3.803v4.453zm0-18.217c-2.268-.302-4.028-2.292-4.098-4.75 1.435.168 2.797.481 4.098.978v3.772z" fill="#E9E01A"/></svg>