<svg width="40" height="40" fill="none" xmlns="http://www.w3.org/2000/svg"><path d="M38.532 10.885l-.008-.008a.844.844 0 00-1.161.016.809.809 0 000 1.145 3.413 3.413 0 01-4.826 4.826.14.14 0 00-.04-.032 15.058 15.058 0 00-4.575-4.2A8.616 8.616 0 0023.34 1.33c-4.387-1.852-9.448.195-11.3 4.582a8.828 8.828 0 00-.666 2.81c-.861-.243-1.552-.357-2.088-.34-.861.008-1.495.544-1.592 1.332-.057.35-.017.861.17 2.527l.17 1.592c-1.56 1.267-2.786 2.746-3.671 4.403l-2.356.463A2.504 2.504 0 000 21.154v5.223c0 1.195.837 2.218 2.007 2.454l2.364.471a12.97 12.97 0 001.698 2.543 5.366 5.366 0 001.592 6.158 6.027 6.027 0 003.827 1.349 6.277 6.277 0 004.273-1.682l.568-.536c2.096.317 4.241.243 6.313-.195l.804.772a5.929 5.929 0 004.119 1.616h.195a6.036 6.036 0 004.208-1.86c1.706-1.804 1.91-4.517.56-6.646 1.528-2.128 2.333-4.565 2.333-7.084v-.642c-.074-1.21-.39-2.461-.943-3.729a5.012 5.012 0 004.606-1.364 5.038 5.038 0 00.008-7.117zm-18.547-8.62a6.986 6.986 0 013.908 12.787c-.065.05-.13.147-.179.147H16.29c-.033 0-.073-.05-.114-.082a7.013 7.013 0 01-3.177-5.37c-.016-.186-.016-.349-.016-.495.008-3.851 3.136-6.979 7.003-6.987zM30.953 30.22c-.138.163-.35.536-.098 1.04.025.049.049.09.081.13 1.178 1.535 1.114 3.615-.154 4.956-.804.837-1.893 1.356-3.07 1.356h-.155a4.323 4.323 0 01-2.998-1.17l-1.056-1.007a.963.963 0 00-.877-.244c-2.088.496-4.25.561-6.37.203-.048-.008-.09-.008-.138-.008a.95.95 0 00-.69.269l-.796.755a4.64 4.64 0 01-2.966 1.235 4.449 4.449 0 01-2.998-.967 3.76 3.76 0 01-.99-4.566.889.889 0 00.089-.69.817.817 0 00-.195-.382 11.81 11.81 0 01-1.901-2.81.824.824 0 00-.155-.22 1.021 1.021 0 00-.577-.317l-2.616-.528a.879.879 0 01-.698-.861v-5.24a.863.863 0 01.698-.861l2.625-.529c.219-.04.422-.146.576-.316a.785.785 0 00.155-.212c.828-1.657 2.063-3.136 3.664-4.37.024-.025.048-.041.073-.065a.943.943 0 00.276-.7c0-.032 0-.056-.008-.088l-.211-1.95c-.073-.626-.195-1.755-.179-2.064h.032c.325-.008.951.049 2.105.423a8.547 8.547 0 002.315 4.785h-.772a.815.815 0 00-.812.812c0 .447.365.813.812.813h14.08a.815.815 0 00.812-.813.815.815 0 00-.813-.812h-.845c.358-.35.675-.74.943-1.162 1.876 1.137 3.42 2.665 4.484 4.42l.577 1.113c.593 1.226.934 2.47 1.015 3.607v.56c0 2.316-.787 4.55-2.274 6.475z" fill="#E9E01A"/><path d="M11.252 19.675a2.079 2.079 0 102.08 2.08 2.073 2.073 0 00-2.08-2.08zm0 2.543a.454.454 0 11.455-.455.444.444 0 01-.455.455zm8.733-17.889a4.92 4.92 0 00-4.923 4.923 4.94 4.94 0 004.923 4.923 4.92 4.92 0 004.923-4.923 4.92 4.92 0 00-4.923-4.923zm0 8.221a3.3 3.3 0 01-3.298-3.298 3.3 3.3 0 013.298-3.299 3.3 3.3 0 013.299 3.299 3.3 3.3 0 01-3.299 3.298z" fill="#E9E01A"/></svg>