<svg width="34" height="40" fill="none" xmlns="http://www.w3.org/2000/svg"><path d="M30.037 12.257l1.568-1.549c.61-.602.61-1.578 0-2.18a1.574 1.574 0 00-2.207 0l-1.568 1.55a16.857 16.857 0 00-9.24-3.78V3.197h1.51c.86 0 1.56-.69 1.56-1.542A1.55 1.55 0 0020.1.115h-6.14c-.862 0-1.56.69-1.56 1.54 0 .851.698 1.542 1.56 1.542h1.508v3.101C6.932 7.065.126 14.148.126 22.923c0 9.227 7.56 16.696 16.905 16.696 9.343 0 16.905-7.467 16.905-16.696 0-3.942-1.374-7.674-3.899-10.666zM17.03 36.537c-7.6 0-13.784-6.108-13.784-13.614C3.246 15.417 9.43 9.31 17.03 9.31c7.6 0 13.784 6.107 13.784 13.613 0 7.506-6.183 13.613-13.784 13.613zm7.232-20.756c.61.602.61 1.578 0 2.18l-6.129 6.052a1.574 1.574 0 01-2.206 0 1.527 1.527 0 010-2.18l6.128-6.052a1.575 1.575 0 012.207 0z" fill="#E9E01A"/></svg>