<svg width="40" height="32" fill="none" xmlns="http://www.w3.org/2000/svg"><path d="M.001 18.279v12.344c0 .682.56 1.234 1.25 1.234h37.498c.69 0 1.25-.552 1.25-1.234V18.279c0-.682-.56-1.235-1.25-1.235H1.251c-.69 0-1.25.553-1.25 1.235zM37.5 19.513v9.875h-3.75v-6.172h-2.5v6.172H27.5v-3.703H25v3.704h-3.75v-6.173h-2.5v6.172H15v-3.703h-2.5v3.704H8.75v-6.173h-2.5v6.172H2.502v-9.875H37.5zM31.625 1.86l4.112 4.074H4.263l4.113-4.062L6.613.132.363 6.304a1.224 1.224 0 000 1.74l6.25 6.173 1.763-1.74-4.113-4.074h31.474l-4.113 4.061 1.763 1.74 6.25-6.172a1.224 1.224 0 000-1.74L33.387.119 31.625 1.86z" fill="#E9E01A"/></svg>