<svg width="28" height="28" fill="none" xmlns="http://www.w3.org/2000/svg"><path d="M24.263 13.645h2.749C27.012 6.28 21.689.727 14.629.727v2.871c5.583 0 9.634 4.224 9.634 10.047z" fill="#B8F01A"/><path d="M14.643 9.34c2.89 0 4.123 1.287 4.123 4.306h2.749c0-4.629-2.44-7.177-6.872-7.177V9.34zm4.703 7.813a1.342 1.342 0 00-.968-.373 1.35 1.35 0 00-.944.435l-3.288 3.532c-.792-.158-2.383-.676-4.021-2.383-1.639-1.712-2.135-3.379-2.282-4.2l3.38-3.436c.256-.26.405-.613.416-.986a1.473 1.473 0 00-.357-1.01L6.204 2.898a1.352 1.352 0 00-.932-.467c-.357-.024-.708.1-.98.342L1.31 5.446c-.238.249-.38.58-.399.931-.02.36-.413 8.86 5.897 15.454C12.314 27.58 19.21 28 21.11 28c.278 0 .448-.01.494-.012a1.34 1.34 0 00.89-.418l2.556-3.116c.233-.284.351-.65.33-1.024a1.461 1.461 0 00-.448-.973l-5.585-5.305z" fill="#B8F01A"/></svg>