<svg width="76" height="91" fill="none" xmlns="http://www.w3.org/2000/svg"><path d="M74.985 17.432a3.736 3.736 0 00-2.702-1.277C64.3 15.945 54.199 7.38 47.52 4.019 43.396 1.949 40.673.584 38.627.225a4.246 4.246 0 00-1.252.003c-2.045.36-4.768 1.725-8.89 3.794C21.807 7.38 11.706 15.945 3.724 16.155a3.746 3.746 0 00-2.706 1.277 4.082 4.082 0 00-1.012 2.911C1.72 55.327 14.225 76.978 36.165 89.561c.57.324 1.203.492 1.833.492.63 0 1.263-.168 1.836-.492 21.94-12.583 34.442-34.234 36.16-69.218a4.061 4.061 0 00-1.009-2.91zm-17.447 13.76L39.025 58.607c-.664.984-1.708 1.637-2.74 1.637-1.037 0-2.189-.569-2.916-1.298l-13.05-13.1a2.293 2.293 0 010-3.232l3.225-3.242a2.285 2.285 0 013.22 0l8.487 8.516L49.994 26.05a2.279 2.279 0 013.165-.604l3.774 2.57a2.3 2.3 0 01.605 3.176z" fill="#E9E01A"/></svg>