<svg width="35" height="28" fill="none" xmlns="http://www.w3.org/2000/svg"><path d="M33.733 14.357a.773.773 0 00.71.055c.231-.099.376-.3.376-.52v-2.337c0-.183-.1-.355-.271-.465l-3.152-2.027.001-.022V4.042c0-.32-.303-.581-.678-.581h-4.702c-.375 0-.679.26-.679.581v1.125L18.258.614a.771.771 0 00-.814 0L1.154 11.09a.558.558 0 00-.271.465v2.336c0 .22.145.422.375.52.23.1.505.078.71-.054l.272-.175v11.932h-.737c-.375 0-.679.26-.679.582 0 .32.304.581.679.581h32.636c.375 0 .679-.26.679-.581 0-.322-.304-.582-.68-.582h-.676V14.182l.271.175zm-7.037-9.733h3.344v3.567l-3.344-2.15V4.623zM2.24 11.846l15.611-10.04 15.61 10.04v.882L18.259 2.95a.755.755 0 00-.407-.117.755.755 0 00-.407.117L2.24 12.728v-.882zm18.27 14.268h-5.38a.479.479 0 00.004-.058v-9.775h5.373v9.776a.5.5 0 00.004.057zm11.594-12.68v12.68H21.862a.5.5 0 00.003-.058V15.7c0-.32-.304-.581-.679-.581h-6.73c-.375 0-.68.26-.68.581v10.357a.5.5 0 00.004.058H3.598v-12.68a.507.507 0 00-.014-.116l14.267-9.175 14.267 9.175a.502.502 0 00-.014.116z" fill="#000"/><path d="M16.506 20.872a.748.748 0 00-.48.17.547.547 0 00-.198.411c0 .154.072.303.198.412.127.108.301.17.48.17a.745.745 0 00.48-.17.547.547 0 00.2-.412.55.55 0 00-.2-.411.75.75 0 00-.48-.17zm-2.088-10.45c0 1.608 1.527 2.916 3.403 2.916 1.876 0 3.402-1.308 3.402-2.916 0-1.608-1.526-2.916-3.402-2.916-1.876 0-3.403 1.308-3.403 2.916zm3.403 1.752c-.89 0-1.648-.49-1.929-1.17h3.858c-.28.68-1.04 1.17-1.929 1.17zM19.75 9.84h-3.858c.28-.68 1.04-1.17 1.929-1.17.89 0 1.648.49 1.929 1.17zm-7.995 12.236V15.7c0-.32-.304-.581-.68-.581h-4.76c-.376 0-.68.26-.68.581v6.378c-.365.009-.659.265-.659.58 0 .322.304.582.679.582h6.087c.375 0 .679-.26.679-.581 0-.318-.297-.576-.666-.582zm-1.358-5.795v1.163H6.993v-1.163h3.404zm-3.404 5.795v-3.468h3.404v3.468H6.993zm16.97 1.164h6.088c.375 0 .678-.261.678-.582 0-.317-.295-.574-.662-.581v-6.378c0-.32-.304-.581-.68-.581h-4.761c-.375 0-.679.26-.679.581v6.378c-.367.007-.663.264-.663.58 0 .322.304.582.68.582zm1.342-1.164v-3.468h3.404v3.468h-3.404zm3.404-5.795v1.163h-3.404v-1.163h3.404z" fill="#000"/></svg>