<svg width="35" height="29" fill="none" xmlns="http://www.w3.org/2000/svg"><path d="M30.399 16.362h-6.501a.656.656 0 00-.655.657v6.566c0 .363.293.658.655.658h6.5a.656.656 0 00.655-.658V17.02a.656.656 0 00-.654-.657zm-5.847 1.315h1.942v5.25h-1.942v-5.25zm5.192 5.25h-1.941v-5.25h1.941v5.25zm-8.55-17.121h-6.49a.656.656 0 00-.655.658v6.565c0 .363.293.658.654.658h6.491a.656.656 0 00.655-.658V6.464a.656.656 0 00-.655-.658zM15.358 7.12h1.936v5.25h-1.936V7.12zm5.182 5.25h-1.937V7.12h1.937v5.25zm9.859-6.564h-6.501a.656.656 0 00-.655.658v6.565c0 .363.293.658.655.658h6.5a.656.656 0 00.655-.658V6.464a.656.656 0 00-.654-.658zM24.552 7.12h1.942v5.25h-1.942V7.12zm5.192 5.25h-1.941V7.12h1.941v5.25zm-17.673 3.992h-6.5a.656.656 0 00-.655.657v6.566c0 .363.293.658.654.658h6.501a.656.656 0 00.655-.658V17.02a.656.656 0 00-.655-.657zm-5.846 1.315h1.941v5.25H6.225v-5.25zm5.192 5.25H9.475v-5.25h1.942v5.25zm.654-17.121h-6.5a.656.656 0 00-.655.658v6.565c0 .363.293.658.654.658h6.501a.656.656 0 00.655-.658V6.464a.656.656 0 00-.655-.658zM6.225 7.12h1.941v5.25H6.225V7.12zm5.192 5.25H9.475V7.12h1.942v5.25z" fill="#000"/><path d="M34.292 26.894h-.635V1.872a.656.656 0 00.573-.652.656.656 0 00-.654-.658H2.266a.656.656 0 00-.026 1.314v25.018h-.634a.656.656 0 00-.655.657c0 .363.293.658.655.658h32.686a.656.656 0 00.654-.658.656.656 0 00-.654-.657zM3.549 1.877h28.8v25.017h-10.5v-9.875a.656.656 0 00-.655-.657h-6.49a.656.656 0 00-.655.657v9.875h-10.5V1.877zm16.99 25.017h-5.181v-9.217h5.181v9.217z" fill="#000"/><path d="M5.57 4.508h24.702a.656.656 0 00.655-.658.656.656 0 00-.655-.658H5.57a.656.656 0 00-.654.658c0 .363.293.658.654.658z" fill="#000"/></svg>