<svg width="29" height="35" fill="none" xmlns="http://www.w3.org/2000/svg"><path d="M28.826 33.39l-2.28-32.152a.998.998 0 00-.994-.93H2.602a.998.998 0 00-.996 1.001v4.07c0 .552.446 1 .996 1h.259L.945 33.39a.999.999 0 00.993 1.072h3.984a.998.998 0 00.994-.93l.223-3.14h5.97l-.213 2.998a1 1 0 00.994 1.072h3.984a.998.998 0 00.993-.93l.436-6.142h7.101l.436 6.142a.998.998 0 001.064.927 1 1 0 00.922-1.07zM3.598 2.31h16.6v2.067h-16.6V2.31zm10.505 14.075H8.135l.284-4.003h5.967l-.283 4.003zm-6.11 2.001h5.967l-.283 4.003h-5.97l.285-4.003zm6.82-12.007l-.285 4.002H8.562l.284-4.002h5.966zM3.007 32.46l1.85-26.066 1.989.034L4.995 32.46H3.008zm4.273-4.069l.285-4.002h5.969l-.284 4.002H7.28zm7.678 4.07l1.85-26.083h1.987l-1.85 26.082H14.96zm4.486-7.072L20.793 6.38h.4c.55 0 .996-.448.996-1V2.31h2.436l1.637 23.081h-6.817z" fill="#000"/></svg>