<svg width="6" height="27" fill="none" xmlns="http://www.w3.org/2000/svg"><path d="M3 17.75c.619 0 1.212-.224 1.65-.622.437-.399.683-.94.683-1.503V2.875c0-.564-.246-1.104-.683-1.503A2.454 2.454 0 003 .75c-.619 0-1.212.224-1.65.622a2.033 2.033 0 00-.683 1.503v12.75c0 .564.245 1.104.683 1.503A2.454 2.454 0 003 17.75zm0 8.5c.577 0 1.14-.156 1.62-.448a2.72 2.72 0 001.075-1.192c.22-.485.278-1.02.166-1.534a2.592 2.592 0 00-.799-1.36 3.015 3.015 0 00-1.493-.728 3.184 3.184 0 00-1.685.152 2.875 2.875 0 00-1.31.978c-.32.437-.49.95-.49 1.476 0 .704.307 1.38.854 1.878A3.068 3.068 0 003 26.25z" fill="#B6334B"/></svg>