<svg width="58" height="58" fill="none" xmlns="http://www.w3.org/2000/svg"><path d="M29 18.578A10.422 10.422 0 1039.422 29 10.434 10.434 0 0029 18.578zm0 18.125A7.703 7.703 0 1136.703 29 7.711 7.711 0 0129 36.703zm9.969-29.906H19.03A12.249 12.249 0 006.797 19.03v19.94A12.249 12.249 0 0019.03 51.203h19.94A12.249 12.249 0 0051.203 38.97V19.03A12.249 12.249 0 0038.97 6.797zm9.515 32.172a9.526 9.526 0 01-9.515 9.515H19.03a9.526 9.526 0 01-9.515-9.515V19.03a9.526 9.526 0 019.515-9.515h19.94a9.526 9.526 0 019.515 9.515v19.94zm-5.437-21.75a2.266 2.266 0 11-4.531 0 2.266 2.266 0 014.53 0z" fill="#B79584"/></svg>