<svg width="85" height="85" fill="none" xmlns="http://www.w3.org/2000/svg"><path d="M42.5 7.083c19.56 0 35.417 15.86 35.417 35.417 0 19.557-15.857 35.417-35.417 35.417-19.56 0-35.417-15.86-35.417-35.417C7.083 22.943 22.94 7.083 42.5 7.083zm0 5.904c-16.274 0-29.513 13.239-29.513 29.513S26.226 72.013 42.5 72.013 72.013 58.773 72.013 42.5c0-16.274-13.24-29.513-29.513-29.513zm-2.656 8.263a2.656 2.656 0 012.631 2.295l.025.361V42.5h11.51a2.656 2.656 0 01.362 5.288l-.362.025H39.844a2.656 2.656 0 01-2.632-2.296l-.025-.36v-21.25a2.656 2.656 0 012.657-2.657z" fill="#4C4E28"/></svg>