<svg width="58" height="58" fill="none" xmlns="http://www.w3.org/2000/svg"><path d="M29 6.344a22.662 22.662 0 00-19.685 33.88l-2.04 7.14a2.719 2.719 0 003.36 3.361l7.141-2.04A22.658 22.658 0 1029 6.344zm0 43.5a20.815 20.815 0 01-10.638-2.915.906.906 0 00-.712-.093l-7.512 2.146a.906.906 0 01-1.12-1.12l2.146-7.512a.907.907 0 00-.093-.712A20.846 20.846 0 1129 49.844zM40.444 33.2l-4.635-2.649a2.722 2.722 0 00-2.748.03l-3.128 1.877a9.978 9.978 0 01-4.391-4.392l1.877-3.128a2.721 2.721 0 00.029-2.748l-2.649-4.635a2.473 2.473 0 00-2.143-1.244 7.252 7.252 0 00-7.25 7.223 19.032 19.032 0 0019.031 19.059h.027a7.252 7.252 0 007.223-7.25 2.472 2.472 0 00-1.243-2.143zm-5.982 7.58h-.025A17.216 17.216 0 0117.22 23.538a5.437 5.437 0 015.437-5.413.657.657 0 01.57.33l2.648 4.636a.907.907 0 01-.01.916l-2.127 3.545a.906.906 0 00-.05.838 11.79 11.79 0 005.923 5.922.905.905 0 00.838-.049l3.545-2.127a.908.908 0 01.916-.01l4.636 2.649a.656.656 0 01.33.569 5.437 5.437 0 01-5.413 5.437z" fill="#B79584"/></svg>