<svg width="123" height="71" viewBox="0 0 123 71" fill="none" xmlns="http://www.w3.org/2000/svg">
<path d="M24.5376 28.867C29.5207 28.867 31.4647 24.613 31.4647 19.8734L24.5376 28.867Z" fill="#EA5A47"/>
<path d="M38.2822 35.339C38.2822 32.0636 40.0322 27.6827 45.6833 27.6827L38.2822 35.339Z" fill="#EA5A47"/>
<path d="M45.6836 44.1796C45.6836 44.1796 45.9227 59.4921 34.0782 59.4921H10.1367C-0.374966 59.4921 -1.04434 44.1796 10.1367 44.1796C-0.374966 44.1796 -1.04434 28.8671 10.1367 28.8671C-1.77351 18.2942 12.8711 9.08771 19.6159 16.1971C12.6173 6.53563 27.4544 1.15876 32.5586 8.90542C31.9577 1.15876 39.6271 -0.238328 46.7409 5.56876L46.1094 6.08063C49.5729 2.61709 60.9509 4.50125 60.9509 13.8302L57.7148 16.1971C67.7263 6.18709 78.4348 22.3046 70.1107 28.1992H72.0546C78.9817 28.1992 79.7721 44.1796 70.1107 44.1796H29.5209" fill="#FC6C2E"/>
<path d="M46.1094 6.08057C42.5846 9.60536 45.6967 10.7151 39.8809 16.5324L46.1094 6.08057Z" fill="#EA5A47"/>
<path d="M10.1367 28.8669H24.5378" stroke="black" stroke-width="2.91667" stroke-miterlimit="10" stroke-linecap="round" stroke-linejoin="round"/>
<path d="M24.5376 28.867C29.5207 28.867 31.4647 24.613 31.4647 19.8734" stroke="black" stroke-width="2.91667" stroke-miterlimit="10" stroke-linecap="round" stroke-linejoin="round"/>
<path d="M10.1367 44.1794H15.6055" stroke="black" stroke-width="2.91667" stroke-miterlimit="10" stroke-linecap="round" stroke-linejoin="round"/>
<path d="M38.2827 44.1796V35.3392" stroke="black" stroke-width="2.91667" stroke-miterlimit="10" stroke-linecap="round" stroke-linejoin="round"/>
<path d="M38.2827 35.3392C38.2827 32.0638 40.0327 27.683 45.6838 27.683" stroke="black" stroke-width="2.91667" stroke-miterlimit="10" stroke-linecap="round" stroke-linejoin="round"/>
<path d="M72.0545 28.1991H59.5376" stroke="black" stroke-width="2.91667" stroke-miterlimit="10" stroke-linecap="round" stroke-linejoin="round"/>
<path d="M45.6836 44.1796C45.6836 44.1796 45.9227 59.4921 34.0782 59.4921H10.1367C-0.374966 59.4921 -1.04434 44.1796 10.1367 44.1796C-0.374966 44.1796 -1.04434 28.8671 10.1367 28.8671C-1.77351 18.2942 12.8711 9.08771 19.6159 16.1971C12.6173 6.53563 27.4544 1.15876 32.5586 8.90542C31.9577 1.15876 39.6271 -0.238328 46.7409 5.56876L46.1094 6.08063C49.5729 2.61709 60.9509 4.50125 60.9509 13.8302L57.7148 16.1971C67.7263 6.18709 78.4348 22.3046 70.1107 28.1992H72.0546C78.9817 28.1992 79.7721 44.1796 70.1107 44.1796H29.5209" stroke="black" stroke-width="2.91667" stroke-miterlimit="10" stroke-linecap="round" stroke-linejoin="round"/>
<path d="M46.1094 6.08057C42.5846 9.60536 45.6967 10.7151 39.8809 16.5324" stroke="black" stroke-width="2.91667" stroke-miterlimit="10" stroke-linecap="round" stroke-linejoin="round"/>
<path d="M56.1632 51.1153C57.1032 49.6953 58.2332 48.9853 59.5532 48.9853C61.5932 48.9853 63.1132 49.8553 64.1132 51.5953C64.3332 51.2953 64.5932 50.9853 64.8932 50.6653C65.2132 50.3253 65.7132 49.9653 66.3932 49.5853C67.0732 49.1853 67.7732 48.9853 68.4932 48.9853C70.0932 48.9853 71.4332 49.6053 72.5132 50.8453C73.5932 52.0653 74.1332 54.0953 74.1332 56.9353V62.1853C74.1332 62.6453 74.1132 62.9953 74.0732 63.2353C74.0532 63.4553 73.9632 63.7153 73.8032 64.0153C73.5432 64.5553 72.7732 64.8253 71.4932 64.8253C70.2332 64.8253 69.4632 64.5453 69.1832 63.9853C69.0432 63.6853 68.9532 63.4253 68.9132 63.2053C68.8932 62.9653 68.8832 62.6153 68.8832 62.1553V56.9053C68.8832 55.1653 68.2632 54.2953 67.0232 54.2953C66.3232 54.2953 65.8432 54.5253 65.5832 54.9853C65.3432 55.4453 65.2232 56.0953 65.2232 56.9353V62.1853C65.2232 62.6653 65.2032 63.0153 65.1632 63.2353C65.1432 63.4553 65.0532 63.7153 64.8932 64.0153C64.6132 64.5553 63.8332 64.8253 62.5532 64.8253C61.2932 64.8253 60.5232 64.5453 60.2432 63.9853C60.1032 63.6853 60.0132 63.4253 59.9732 63.2053C59.9532 62.9653 59.9432 62.6153 59.9432 62.1553V56.9053C59.9432 55.1653 59.3232 54.2953 58.0832 54.2953C56.8832 54.2953 56.2832 55.1653 56.2832 56.9053V62.2153C56.2832 62.6753 56.2632 63.0253 56.2232 63.2653C56.2032 63.4853 56.1132 63.7453 55.9532 64.0453C55.6532 64.5653 54.8732 64.8253 53.6132 64.8253C52.3532 64.8253 51.5832 64.5553 51.3032 64.0153C51.1632 63.7153 51.0732 63.4553 51.0332 63.2353C51.0132 63.0153 51.0032 62.6653 51.0032 62.1853V51.6253C51.0032 51.1653 51.0132 50.8253 51.0332 50.6053C51.0732 50.3653 51.1732 50.1053 51.3332 49.8253C51.6332 49.2853 52.3432 49.0153 53.4632 49.0153C54.5832 49.0153 55.3132 49.1953 55.6532 49.5553C55.9932 49.9153 56.1632 50.4353 56.1632 51.1153ZM78.6908 52.5333C78.6908 52.104 78.7001 51.7867 78.7188 51.5813C78.7561 51.3573 78.8401 51.1053 78.9708 50.8253C79.2321 50.34 79.9601 50.0973 81.1548 50.0973C82.0508 50.0973 82.6855 50.256 83.0588 50.5733C83.3761 50.8347 83.5441 51.236 83.5628 51.7773C83.5815 51.964 83.5908 52.2347 83.5908 52.5893V62.3893C83.5908 62.8187 83.5721 63.1453 83.5348 63.3693C83.5161 63.5747 83.4321 63.8173 83.2828 64.0973C83.0401 64.5827 82.3215 64.8253 81.1268 64.8253C79.9508 64.8253 79.2321 64.5733 78.9708 64.0693C78.8401 63.7893 78.7561 63.5467 78.7188 63.3413C78.7001 63.136 78.6908 62.8093 78.6908 62.3613V52.5333ZM83.2828 47.3533C83.1521 47.6147 82.9095 47.8013 82.5548 47.9133C82.2001 48.0253 81.7241 48.0813 81.1268 48.0813C80.5481 48.0813 80.0815 48.0253 79.7268 47.9133C79.3721 47.8013 79.1201 47.6053 78.9708 47.3253C78.8401 47.0453 78.7561 46.8026 78.7188 46.5973C78.7001 46.3733 78.6908 46.0466 78.6908 45.6173C78.6908 45.188 78.7001 44.8706 78.7188 44.6653C78.7561 44.4413 78.8401 44.1986 78.9708 43.9373C79.2321 43.4333 79.9601 43.1813 81.1548 43.1813C82.3308 43.1813 83.0401 43.4333 83.2828 43.9373C83.4321 44.2173 83.5161 44.4693 83.5348 44.6933C83.5721 44.8987 83.5908 45.216 83.5908 45.6453C83.5908 46.0746 83.5721 46.4013 83.5348 46.6253C83.5161 46.8306 83.4321 47.0733 83.2828 47.3533ZM96.6075 57.4333L100.332 60.5133C100.798 60.9053 101.088 61.204 101.2 61.4093C101.33 61.6147 101.396 61.8107 101.396 61.9973C101.396 62.4453 101.106 63.052 100.528 63.8173C99.8929 64.6013 99.3329 64.9933 98.8475 64.9933C98.4369 64.9933 97.8675 64.7227 97.1395 64.1813L96.8595 63.9853C96.4302 63.6307 95.7675 63.0147 94.8715 62.1373C93.9755 61.2413 93.2942 60.6067 92.8275 60.2333V62.3893C92.8275 62.8187 92.8089 63.1453 92.7715 63.3693C92.7529 63.5747 92.6689 63.8173 92.5195 64.0973C92.2769 64.5827 91.5582 64.8253 90.3635 64.8253C89.1875 64.8253 88.4689 64.5733 88.2075 64.0693C88.0769 63.7893 87.9929 63.5467 87.9555 63.3413C87.9369 63.1173 87.9275 62.7907 87.9275 62.3613V45.5893C87.9275 45.16 87.9369 44.8426 87.9555 44.6373C87.9929 44.4133 88.0769 44.1613 88.2075 43.8813C88.4689 43.3773 89.1969 43.1253 90.3915 43.1253C91.2875 43.1253 91.9222 43.284 92.2955 43.6013C92.6129 43.8627 92.7809 44.2733 92.7995 44.8333C92.8182 45.0013 92.8275 45.2626 92.8275 45.6173V54.4933C93.1635 54.2133 93.6675 53.7373 94.3395 53.0653C95.0302 52.3933 95.5435 51.9173 95.8795 51.6373L96.2155 51.4133C96.8689 50.9093 97.4289 50.6573 97.8955 50.6573C98.3622 50.6573 98.8942 51.04 99.4915 51.8053C100.108 52.552 100.416 53.14 100.416 53.5693C100.416 53.9987 100.07 54.5027 99.3795 55.0813L96.6075 57.4333ZM101.672 57.4613C101.672 55.2213 102.456 53.3733 104.024 51.9173C105.592 50.4613 107.384 49.7333 109.4 49.7333C111.416 49.7333 113.198 50.4613 114.748 51.9173C116.297 53.3547 117.072 55.1933 117.072 57.4333C117.072 58.9827 116.67 60.364 115.868 61.5773C115.065 62.772 114.085 63.6587 112.928 64.2373C111.789 64.7973 110.604 65.0773 109.372 65.0773C108.14 65.0773 106.945 64.7787 105.788 64.1813C104.63 63.5653 103.65 62.6693 102.848 61.4933C102.064 60.2987 101.672 58.9547 101.672 57.4613ZM107.524 59.4773C108.121 59.9253 108.728 60.1493 109.344 60.1493C109.96 60.1493 110.576 59.916 111.192 59.4493C111.808 58.9827 112.116 58.292 112.116 57.3773C112.116 56.4627 111.826 55.7813 111.248 55.3333C110.669 54.8853 110.044 54.6613 109.372 54.6613C108.7 54.6613 108.074 54.8947 107.496 55.3613C106.917 55.828 106.628 56.5187 106.628 57.4333C106.628 58.3293 106.926 59.0107 107.524 59.4773Z" fill="black"/>
</svg>
