<svg width="6" height="27" viewBox="0 0 6 27" fill="none" xmlns="http://www.w3.org/2000/svg">
<path d="M2.99992 17.75C3.61876 17.75 4.21225 17.5261 4.64984 17.1276C5.08742 16.7291 5.33325 16.1886 5.33325 15.625V2.875C5.33325 2.31141 5.08742 1.77091 4.64984 1.3724C4.21225 0.973884 3.61876 0.75 2.99992 0.75C2.38108 0.75 1.78759 0.973884 1.35 1.3724C0.912419 1.77091 0.666585 2.31141 0.666585 2.875V15.625C0.666585 16.1886 0.912419 16.7291 1.35 17.1276C1.78759 17.5261 2.38108 17.75 2.99992 17.75ZM2.99992 26.25C3.57678 26.25 4.14069 26.0942 4.62033 25.8023C5.09998 25.5105 5.47381 25.0956 5.69457 24.6103C5.91532 24.1249 5.97308 23.5908 5.86054 23.0755C5.748 22.5603 5.47022 22.087 5.06231 21.7155C4.65441 21.344 4.13471 21.091 3.56893 20.9885C3.00316 20.886 2.41671 20.9387 1.88376 21.1397C1.35081 21.3407 0.895286 21.6812 0.574799 22.118C0.254311 22.5548 0.083252 23.0684 0.083252 23.5938C0.083252 24.2982 0.390543 24.9739 0.937524 25.472C1.48451 25.9701 2.22637 26.25 2.99992 26.25Z" fill="#B6334B"/>
</svg>
