<svg width="84" height="84" viewBox="0 0 84 84" fill="none" xmlns="http://www.w3.org/2000/svg">
<path d="M63 44.625L68.019 54.3454L78.75 55.9046L70.875 63L72.8989 73.5L63 67.5938L53.1011 73.5L55.125 63L47.25 55.9046L58.275 54.3454L63 44.625Z" fill="#4C4E28"/>
<path d="M15.75 42H31.5V47.25H15.75V42Z" fill="#4C4E28"/>
<path d="M15.75 31.5H42V36.75H15.75V31.5Z" fill="#4C4E28"/>
<path d="M15.75 21H42V26.25H15.75V21Z" fill="#4C4E28"/>
<path d="M42 68.25H10.5V15.75H73.5V42H78.75V15.75C78.75 14.3576 78.1969 13.0223 77.2123 12.0377C76.2277 11.0531 74.8924 10.5 73.5 10.5H10.5C9.10761 10.5 7.77226 11.0531 6.78769 12.0377C5.80312 13.0223 5.25 14.3576 5.25 15.75V68.25C5.25 69.6424 5.80312 70.9777 6.78769 71.9623C7.77226 72.9469 9.10761 73.5 10.5 73.5H42V68.25Z" fill="#4C4E28"/>
</svg>
