<svg width="58" height="58" viewBox="0 0 58 58" fill="none" xmlns="http://www.w3.org/2000/svg">
<path d="M51.6563 29C51.6563 24.5191 50.3276 20.1389 47.8382 16.4131C45.3488 12.6874 41.8105 9.78347 37.6708 8.0686C33.531 6.35373 28.9757 5.90492 24.5809 6.77891C20.1861 7.65291 16.1491 9.81046 12.9805 12.9787C9.81187 16.147 7.65388 20.1838 6.7794 24.5785C5.90492 28.9732 6.35323 33.5285 8.06765 37.6685C9.78207 41.8084 12.6856 45.347 16.4111 47.8368C20.1365 50.3266 24.5166 51.6558 28.9975 51.6563L29 51.6565L29.0025 51.6563C35.0088 51.6488 40.7669 49.2594 45.0138 45.012C49.2607 40.7647 51.6495 35.0063 51.6563 29ZM29.9063 49.8229V33.5313H36.25C36.4904 33.5313 36.7209 33.4358 36.8908 33.2658C37.0608 33.0959 37.1563 32.8654 37.1563 32.625C37.1563 32.3847 37.0608 32.1542 36.8908 31.9842C36.7209 31.8142 36.4904 31.7188 36.25 31.7188H29.9063V25.375C29.9076 24.1737 30.3854 23.0219 31.2349 22.1724C32.0844 21.3229 33.2362 20.8451 34.4375 20.8438H38.0625C38.3029 20.8438 38.5334 20.7483 38.7033 20.5783C38.8733 20.4084 38.9688 20.1779 38.9688 19.9375C38.9688 19.6972 38.8733 19.4666 38.7033 19.2967C38.5334 19.1267 38.3029 19.0313 38.0625 19.0313H34.4375C32.7556 19.0331 31.1431 19.7021 29.9539 20.8914C28.7646 22.0806 28.0956 23.6931 28.0938 25.375V31.7188H21.75C21.5097 31.7188 21.2791 31.8142 21.1092 31.9842C20.9392 32.1542 20.8438 32.3847 20.8438 32.625C20.8438 32.8654 20.9392 33.0959 21.1092 33.2658C21.2791 33.4358 21.5097 33.5313 21.75 33.5313H28.0938V49.8227C22.6493 49.5858 17.5142 47.226 13.7884 43.2489C10.0627 39.2718 8.04269 33.9937 8.16119 28.5454C8.27969 23.0971 10.5272 17.9118 14.4224 14.1005C18.3175 10.2892 23.5504 8.1549 29 8.1549C34.4496 8.1549 39.6825 10.2892 43.5776 14.1005C47.4728 17.9118 49.7203 23.0971 49.8388 28.5454C49.9573 33.9937 47.9373 39.2718 44.2116 43.2489C40.4859 47.226 35.3507 49.586 29.9063 49.8229Z" fill="#B79584"/>
</svg>
