<svg width="58" height="58" viewBox="0 0 58 58" fill="none" xmlns="http://www.w3.org/2000/svg">
<path d="M29 18.5781C26.9387 18.5781 24.9238 19.1894 23.2099 20.3345C21.496 21.4797 20.1602 23.1074 19.3714 25.0117C18.5826 26.9161 18.3762 29.0116 18.7784 31.0332C19.1805 33.0549 20.1731 34.9119 21.6306 36.3694C23.0881 37.8269 24.9451 38.8195 26.9668 39.2216C28.9884 39.6238 31.0839 39.4174 32.9883 38.6286C34.8926 37.8398 36.5203 36.504 37.6655 34.7901C38.8106 33.0762 39.4219 31.0613 39.4219 29C39.4188 26.2369 38.3197 23.5879 36.3659 21.6341C34.4121 19.6803 31.7631 18.5812 29 18.5781ZM29 36.7031C27.4765 36.7031 25.9871 36.2513 24.7204 35.4049C23.4536 34.5585 22.4663 33.3554 21.8832 31.9479C21.3002 30.5403 21.1477 28.9915 21.4449 27.4972C21.7421 26.0029 22.4758 24.6304 23.5531 23.5531C24.6304 22.4758 26.0029 21.7421 27.4972 21.4449C28.9915 21.1477 30.5403 21.3002 31.9479 21.8832C33.3554 22.4663 34.5585 23.4536 35.4049 24.7204C36.2513 25.9871 36.7031 27.4765 36.7031 29C36.7008 31.0423 35.8885 33.0002 34.4443 34.4443C33.0002 35.8885 31.0423 36.7008 29 36.7031ZM38.9688 6.79688H19.0312C15.7876 6.80059 12.6779 8.09076 10.3843 10.3843C8.09076 12.6779 6.80059 15.7876 6.79688 19.0312V38.9688C6.80059 42.2124 8.09076 45.3221 10.3843 47.6157C12.6779 49.9092 15.7876 51.1994 19.0312 51.2031H38.9688C42.2124 51.1994 45.3221 49.9092 47.6157 47.6157C49.9092 45.3221 51.1994 42.2124 51.2031 38.9688V19.0312C51.1994 15.7876 49.9092 12.6779 47.6157 10.3843C45.3221 8.09076 42.2124 6.80059 38.9688 6.79688ZM48.4844 38.9688C48.4816 41.4916 47.4781 43.9103 45.6942 45.6942C43.9103 47.4781 41.4916 48.4816 38.9688 48.4844H19.0312C16.5084 48.4816 14.0897 47.4781 12.3058 45.6942C10.5219 43.9103 9.51844 41.4916 9.51562 38.9688V19.0312C9.51844 16.5084 10.5219 14.0897 12.3058 12.3058C14.0897 10.5219 16.5084 9.51844 19.0312 9.51562H38.9688C41.4916 9.51844 43.9103 10.5219 45.6942 12.3058C47.4781 14.0897 48.4816 16.5084 48.4844 19.0312V38.9688ZM43.0469 17.2188C43.0469 17.6668 42.914 18.1049 42.665 18.4775C42.4161 18.85 42.0623 19.1404 41.6483 19.3119C41.2343 19.4834 40.7787 19.5283 40.3392 19.4408C39.8998 19.3534 39.4961 19.1376 39.1792 18.8208C38.8624 18.5039 38.6466 18.1002 38.5592 17.6608C38.4717 17.2213 38.5166 16.7657 38.6881 16.3517C38.8596 15.9377 39.15 15.5839 39.5225 15.335C39.8951 15.086 40.3332 14.9531 40.7812 14.9531C41.3819 14.9538 41.9578 15.1928 42.3825 15.6175C42.8072 16.0422 43.0462 16.6181 43.0469 17.2188Z" fill="#B79584"/>
</svg>
