<svg width="85" height="85" viewBox="0 0 85 85" fill="none" xmlns="http://www.w3.org/2000/svg">
<path d="M42.4999 7.08331C62.0605 7.08331 77.9166 22.9429 77.9166 42.5C77.9166 62.0571 62.0605 77.9166 42.4999 77.9166C22.9393 77.9166 7.08325 62.0571 7.08325 42.5C7.08325 22.9429 22.9393 7.08331 42.4999 7.08331ZM42.4999 12.9873C26.226 12.9873 12.9872 26.226 12.9872 42.5C12.9872 58.7739 26.226 72.0127 42.4999 72.0127C58.7739 72.0127 72.0126 58.7739 72.0126 42.5C72.0126 26.226 58.7739 12.9873 42.4999 12.9873ZM39.8437 21.25C40.4856 21.25 41.1057 21.4825 41.5895 21.9044C42.0732 22.3263 42.3878 22.9091 42.4751 23.545L42.4999 23.9062V42.5H54.0103C54.6833 42.5002 55.3312 42.7558 55.8229 43.2153C56.3147 43.6748 56.6137 44.3037 56.6596 44.9752C56.7055 45.6466 56.4948 46.3104 56.0701 46.8325C55.6453 47.3546 55.0383 47.696 54.3716 47.7877L54.0103 47.8125H39.8437C39.2018 47.8125 38.5816 47.58 38.0979 47.1581C37.6141 46.7362 37.2995 46.1534 37.2122 45.5175L37.1874 45.1562V23.9062C37.1874 23.2017 37.4673 22.5261 37.9654 22.028C38.4636 21.5298 39.1392 21.25 39.8437 21.25Z" fill="#4C4E28"/>
</svg>
