<svg width="58" height="58" viewBox="0 0 58 58" fill="none" xmlns="http://www.w3.org/2000/svg">
<path d="M28.9999 6.34375C25.0335 6.34479 21.1367 7.38688 17.6992 9.36585C14.2617 11.3448 11.4037 14.1914 9.41107 17.621C7.41841 21.0506 6.3608 24.9432 6.34395 28.9096C6.32711 32.8761 7.35161 36.7775 9.31506 40.2239L7.27487 47.3643C7.14172 47.8304 7.13565 48.3237 7.25729 48.7931C7.37893 49.2624 7.62386 49.6906 7.96669 50.0334C8.30953 50.3762 8.7378 50.6211 9.20712 50.7428C9.67644 50.8644 10.1697 50.8583 10.6359 50.7251L17.7765 48.6851C20.7911 50.4038 24.1603 51.4072 27.6241 51.6177C31.0879 51.8282 34.5537 51.2403 37.7543 49.8993C40.9549 48.5583 43.8048 46.5001 46.084 43.8834C48.3632 41.2667 50.011 38.1614 50.9001 34.807C51.7892 31.4527 51.896 27.9389 51.2122 24.5368C50.5284 21.1347 49.0723 17.935 46.9562 15.1847C44.84 12.4344 42.1204 10.207 39.0072 8.6741C35.8939 7.14123 32.4701 6.34395 28.9999 6.34375ZM28.9999 49.8438C25.2565 49.8463 21.5816 48.8392 18.3624 46.9286C18.2562 46.8654 18.1383 46.8246 18.0158 46.8087C17.8933 46.7928 17.7688 46.8021 17.6501 46.8361L10.1379 48.9824C9.98255 49.0267 9.81814 49.0287 9.66172 48.9881C9.50531 48.9476 9.36258 48.8659 9.24833 48.7517C9.13408 48.6374 9.05246 48.4946 9.01193 48.3382C8.9714 48.1818 8.97343 48.0174 9.01781 47.862L11.1638 40.3501C11.1977 40.2313 11.2071 40.1069 11.1912 39.9844C11.1753 39.8619 11.1345 39.744 11.0714 39.6378C8.72369 35.6825 7.75008 31.0617 8.30221 26.4954C8.85433 21.9291 10.9012 17.6736 14.1239 14.3918C17.3467 11.11 21.5643 8.98623 26.1199 8.35129C30.6754 7.71636 35.313 8.60592 39.3103 10.8814C43.3076 13.1569 46.4401 16.6905 48.2198 20.9318C49.9995 25.1732 50.3265 29.884 49.1498 34.3305C47.9732 38.7771 45.3589 42.7096 41.7144 45.5155C38.0698 48.3214 33.5995 49.8432 28.9999 49.8438ZM40.4441 33.2011L35.8086 30.5524C35.3892 30.3131 34.9137 30.1896 34.4309 30.1947C33.948 30.1999 33.4753 30.3334 33.0611 30.5816L29.9329 32.4585C28.0393 31.499 26.501 29.9607 25.5417 28.067L27.4185 24.9389C27.6667 24.5247 27.8002 24.0519 27.8053 23.569C27.8104 23.0862 27.6869 22.6107 27.4475 22.1913L24.799 17.5559C24.5827 17.1785 24.2707 16.8648 23.8945 16.6465C23.5183 16.4282 23.0912 16.313 22.6562 16.3125C20.7382 16.313 18.8985 17.0732 17.5398 18.4269C16.181 19.7805 15.4139 21.6174 15.4062 23.5353C15.4027 26.0368 15.8923 28.5144 16.8471 30.8265C17.8019 33.1386 19.2031 35.2398 20.9707 37.0099C22.7382 38.78 24.8374 40.1842 27.1481 41.1424C29.4588 42.1005 31.9357 42.5937 34.4372 42.5938H34.4644C36.3824 42.5861 38.2193 41.819 39.573 40.4602C40.9267 39.1015 41.687 37.2618 41.6874 35.3438C41.687 34.9088 41.5718 34.4817 41.3535 34.1055C41.1351 33.7293 40.8215 33.4174 40.4441 33.2011ZM34.4619 40.7812H34.4374C32.1742 40.7813 29.9332 40.3351 27.8425 39.4682C25.7519 38.6014 23.8526 37.3309 22.2534 35.7294C20.6541 34.128 19.3863 32.2269 18.5224 30.135C17.6585 28.0432 17.2155 25.8015 17.2187 23.5383C17.2249 22.1003 17.8006 20.7234 18.8197 19.7088C19.8387 18.6943 21.2182 18.1248 22.6562 18.125C22.7717 18.1251 22.8851 18.1557 22.9851 18.2137C23.085 18.2716 23.1678 18.3549 23.2253 18.4551L25.8738 23.0908C25.9536 23.2306 25.9948 23.389 25.9931 23.55C25.9914 23.7109 25.947 23.8685 25.8643 24.0066L23.7369 27.5518C23.6617 27.6772 23.6179 27.8188 23.6093 27.9648C23.6007 28.1107 23.6275 28.2566 23.6875 28.3899C24.8704 31.0224 26.9777 33.1297 29.6103 34.3124C29.7436 34.3725 29.8895 34.3993 30.0354 34.3907C30.1813 34.3821 30.323 34.3383 30.4484 34.263L33.9934 32.1356C34.1315 32.0529 34.2891 32.0084 34.4501 32.0067C34.611 32.005 34.7695 32.0461 34.9094 32.1259L39.5448 34.7749C39.6451 34.8323 39.7283 34.9151 39.7863 35.015C39.8443 35.1149 39.8748 35.2283 39.8749 35.3438C39.8751 36.7817 39.3057 38.1611 38.2912 39.1802C37.2767 40.1993 35.8998 40.775 34.4619 40.7812Z" fill="#B79584"/>
</svg>
